<?xml version="1.0" encoding="UTF-8"?>
<svg id="base_color" data-name="base color" xmlns="http://www.w3.org/2000/svg" viewBox="0 0 290.06 230.84">
  <defs>
    <style>
      .cls-1 {
        fill: #f2e9d8;
      }

      .cls-2 {
        fill: none;
        stroke: #000;
        stroke-miterlimit: 10;
        stroke-width: 3px;
      }
    </style>
  </defs>
  <path class="cls-1" d="M170.4,115.33c.29,2.53-.56,5.09-1.88,7.27-3.99,6.6-12.77,9.96-20.05,7.43-7.28-2.53-12.11-10.87-10.41-18.39,1.7-7.51,9.93-12.99,17.47-11.39,6.5,1.92,14.1,8.34,14.87,15.08Z"/>
  <path class="cls-2" d="M168.52,122.6c-3.99,6.6-12.77,9.96-20.05,7.43-7.28-2.53-12.11-10.87-10.41-18.39,1.7-7.51,9.93-12.99,17.47-11.39,6.5,1.92,14.1,8.34,14.87,15.08.29,2.53-.56,5.09-1.88,7.27Z"/>
</svg>