<?xml version="1.0" encoding="UTF-8"?>
<svg id="base_color" data-name="base color" xmlns="http://www.w3.org/2000/svg" viewBox="0 0 317.59 230.84">
  <defs>
    <style>
      .cls-1 {
        fill: #f2e9d8;
      }

      .cls-2 {
        fill: none;
        stroke: #000;
        stroke-miterlimit: 10;
        stroke-width: 3px;
      }
    </style>
  </defs>
  <path class="cls-1" d="M164.28,95.17c1.82-.04,3.65.08,5.47.37,9,2.49,13.69,15.23,13.68,24.58-.01,10.17-8.66,18.45-17.99,22.49-3.45,1.5-7.16,2.61-10.9,2.35-4.26-.3-8.18-2.33-11.84-4.52-4.42-2.65-8.92-5.92-10.59-10.78-1.22-3.57-.72-7.52.4-11.12,3.81-12.15,15.3-21.2,27.79-23.03,1.48-.12,2.75-.25,3.89-.33.03-.01.06-.01.09-.01Z"/>
  <path class="cls-2" d="M169.75,95.54c9,2.49,13.69,15.23,13.68,24.58-.01,10.17-8.66,18.45-17.99,22.49-3.45,1.5-7.16,2.61-10.9,2.35-4.26-.3-8.18-2.33-11.84-4.52-4.42-2.65-8.92-5.92-10.59-10.78-1.22-3.57-.72-7.52.4-11.12,3.81-12.15,15.3-21.2,27.79-23.03,1.48-.12,2.75-.25,3.89-.33.03-.01.06-.01.09-.01,1.82-.04,3.65.08,5.47.37Z"/>
</svg>