<?xml version="1.0" encoding="UTF-8"?>
<svg id="base_color" data-name="base color" xmlns="http://www.w3.org/2000/svg" viewBox="0 0 331.88 241.77">
  <defs>
    <style>
      .cls-1 {
        fill: #f2e9d8;
      }

      .cls-2 {
        fill: none;
        stroke: #000;
        stroke-miterlimit: 10;
        stroke-width: 3px;
      }
    </style>
  </defs>
  <path class="cls-1" d="M194.93,105.6c4.97,7.44,6.29,17.21,3.48,25.71-4.4,13.28-18.38,22.02-32.37,22.58-5.37.21-10.89-.66-15.62-3.22-5.59-3.03-9.73-8.22-12.83-13.77-3.22-5.78-5.49-12.22-5.57-18.84-.11-10.17,5.37-20.23,13.97-25.66s20.04-6.04,29.18-1.56c10.1,5.15,14.78,7.32,19.76,14.76Z"/>
  <path class="cls-2" d="M198.41,131.31c-4.4,13.28-18.38,22.02-32.37,22.58-5.37.21-10.89-.66-15.62-3.22-5.59-3.03-9.73-8.22-12.83-13.77-3.22-5.78-5.49-12.22-5.57-18.84-.11-10.17,5.37-20.23,13.97-25.66s20.04-6.04,29.18-1.56c10.1,5.15,14.78,7.32,19.76,14.76,4.97,7.44,6.29,17.21,3.48,25.71Z"/>
</svg>