<?xml version="1.0" encoding="UTF-8"?>
<svg id="base_color" data-name="base color" xmlns="http://www.w3.org/2000/svg" viewBox="0 0 754.81 605.56">
  <defs>
    <style>
      .cls-1 {
        fill: #f2e9d8;
      }

      .cls-2 {
        fill: none;
        stroke: #000;
        stroke-miterlimit: 10;
        stroke-width: 4px;
      }
    </style>
  </defs>
  <g>
    <path class="cls-1" d="M575.89,211.4c15.14,10.58,25.17,28.85,23.98,47.29-1.19,18.43-14.56,35.97-32.53,40.23,18.85,26.97,20.79,65.59,2.25,92.77-18.54,27.18-57.48,39.28-87.07,24.9-1.57-.76-3.17-1.61-4.91-1.72-3.91-.25-6.99,3.09-9.53,6.06-14.19,16.55-31.68,30.66-51.97,38.63s-43.54,9.41-63.89,1.6c-24.74-9.49-42.63-31.13-57.44-53.11-28.34,15.9-54.25,22.15-82.3,5.74-11.78-6.89-16.34-11.67-22.09-20.47-2.65-4.06-3.62-8.94-3.82-13.78-.69-16.9,2.36-33.95,8.89-49.55-12.81-1.38-23.78-10.73-29.86-22.08-6.07-11.36-7.9-24.51-8.32-37.38-.32-9.85.15-19.88,3.26-29.22,10.45-31.36,48.99-46.31,81.45-40.08,2.14-30.95,27.26-55.4,57.26-63.29,30-7.9,64.34,5.21,81.44,31.1,11.13-12.53,28.33-18.46,45.07-18.88,16.75-.43,33.24,4.1,49.03,9.69,20.73,7.34,43.21,19.37,48.16,40.79,18.21-3.07,37.8.18,52.94,10.76Z"/>
    <path class="cls-2" d="M599.87,258.69c-1.19,18.43-14.56,35.97-32.53,40.23,18.85,26.97,20.79,65.59,2.25,92.77-18.54,27.18-57.48,39.28-87.07,24.9-1.57-.76-3.17-1.61-4.91-1.72-3.91-.25-6.99,3.09-9.53,6.06-14.19,16.55-31.68,30.66-51.97,38.63s-43.54,9.41-63.89,1.6c-24.74-9.49-42.63-31.13-57.44-53.11-28.34,15.9-54.25,22.15-82.3,5.74-11.78-6.89-16.34-11.67-22.09-20.47-2.65-4.06-3.62-8.94-3.82-13.78-.69-16.9,2.36-33.95,8.89-49.55-12.81-1.38-23.78-10.73-29.86-22.08-6.07-11.36-7.9-24.51-8.32-37.38-.32-9.85.15-19.88,3.26-29.22,10.45-31.36,48.99-46.31,81.45-40.08,2.14-30.95,27.26-55.4,57.26-63.29,30-7.9,64.34,5.21,81.44,31.1,11.13-12.53,28.33-18.46,45.07-18.88,16.75-.43,33.24,4.1,49.03,9.69,20.73,7.34,43.21,19.37,48.16,40.79,18.21-3.07,37.8.18,52.94,10.76,15.14,10.58,25.17,28.85,23.98,47.29Z"/>
  </g>
  <g>
    <path d="M317.36,198.09c-7.54,2.16-12.8,8.83-15.09,16.1-2.84,9.01-1.46,18.81.04,27.93,2.87,17.41,8.62,35.29,21.77,47.74,6.51,6.16,14.59,10.77,23.49,12.25,1.89.32,2.7-2.58.8-2.89-15.44-2.58-27.37-14.39-34.19-27.95-3.9-7.76-6.33-16.19-8.02-24.68s-3.46-18.08-2.08-26.94c1.24-7.98,5.84-16.31,14.07-18.67,1.85-.53,1.06-3.43-.8-2.89h0Z"/>
    <path d="M401.57,202.35c7.06,2.83,11.97,9.44,14.32,16.48,2.91,8.75,2,18.24-.08,27.06-3.92,16.55-11.27,33.84-25.14,44.45-7.27,5.56-16.13,9.13-25.37,9.01-1.93-.03-1.93,2.97,0,3,18.23.24,33.63-12.29,42.47-27.37,4.73-8.07,8.01-16.98,10.37-26.01,2.47-9.47,3.83-19.74,1.14-29.33-2.46-8.78-8.28-16.73-16.91-20.19-1.79-.72-2.57,2.18-.8,2.89h0Z"/>
    <path d="M350.5,306.51c-.14-2.78-.14-5.56-.02-8.34l-1.1,1.45c5.06-.7,10.21-.68,15.27-.06l-1.45-1.1c.3,1.36.61,2.71.91,4.07.15.65.29,1.3.44,1.95.12.55.38,1.21.31,1.78l.2-.76-.06.06.66-.39c-1.27.51-2.83.61-4.18.87-1.89.37-1.09,3.26.8,2.89,1.29-.25,2.68-.39,3.94-.78,1.35-.41,1.8-1.59,1.56-2.89-.47-2.55-1.14-5.08-1.7-7.61-.16-.7-.8-1.02-1.45-1.1-5.35-.66-10.72-.57-16.07.17-.66.09-1.08.85-1.1,1.45-.12,2.78-.11,5.56.02,8.34.09,1.92,3.09,1.93,3,0h0Z"/>
    <path d="M350.32,309.72c.19-.12.39-.23.6-.32l-.36.15c.33-.13.66-.22,1.01-.27l-.4.05c.35-.04.7-.04,1.05,0l-.4-.05c.17.03.34.06.51.11.38.1.82.05,1.16-.15.31-.18.61-.54.69-.9.09-.38.07-.81-.15-1.16s-.51-.58-.9-.69c-1.44-.4-3.07-.18-4.33.63-.33.21-.59.52-.69.9s-.05.84.15,1.16.51.6.9.69.81.07,1.16-.15h0Z"/>
    <path d="M353.44,308.39c-.15,2.82,0,5.62.38,8.41.11.8,1.15,1.24,1.85,1.05,2.14-.6,4.32-1.08,6.51-1.46.58-.1,1.18-.85,1.1-1.45-.31-2.39-.33-4.81-.07-7.21.08-.78-.75-1.53-1.5-1.5-.89.04-1.41.66-1.5,1.5-.26,2.4-.24,4.82.07,7.21l1.1-1.45c-2.19.37-4.37.86-6.51,1.46l1.85,1.05c.03.18-.04-.29-.03-.28-.02-.17-.04-.34-.06-.51-.03-.31-.06-.62-.09-.94-.06-.65-.1-1.31-.12-1.96-.05-1.31-.04-2.62.04-3.93.04-.78-.72-1.53-1.5-1.5-.85.04-1.45.66-1.5,1.5h0Z"/>
    <path d="M347.44,305.96c-.04.35-.09.69-.07,1.04.02.59.15,1.14.42,1.67.11.22.27.42.44.59.09.09.19.16.28.23.1.08.2.16.31.22.16.09.33.15.5.22.06.02.12.05.19.06.18.04.37.06.55.08.06,0,.13,0,.19,0,.41-.02.72-.1,1.08-.29.16-.08.31-.21.45-.32.15-.12.25-.29.36-.44.11-.17.17-.36.18-.56.04-.2.04-.4-.03-.6-.1-.35-.36-.73-.69-.9-.35-.18-.77-.28-1.16-.15l-.36.15c-.23.13-.4.31-.54.54l-.02.02.23-.3s-.08.09-.13.13l.3-.23s-.1.07-.16.09l.36-.15c-.07.03-.15.05-.23.06l.4-.05c-.09,0-.18,0-.27,0l.4.05c-.11-.02-.22-.05-.32-.09l.36.15c-.11-.05-.2-.1-.3-.17l.3.23c-.08-.06-.16-.14-.22-.22l.23.3c-.07-.1-.13-.21-.18-.32l.15.36c-.07-.16-.11-.33-.13-.51l.05.4c-.06-.44,0-.88.05-1.31,0-.21-.04-.4-.13-.58-.06-.19-.16-.35-.31-.48-.26-.26-.69-.46-1.06-.44s-.79.14-1.06.44l-.23.3c-.14.23-.2.49-.2.76h0Z"/>
    <path d="M351.83,309.19c.39-.13.79-.26,1.2-.32l-.4.05c.21-.02.42-.03.63,0l-.4-.05c.16.02.31.06.47.12l-.36-.15c.13.06.25.13.37.21l-.3-.23c.09.07.16.15.23.24l-.23-.3c.07.09.12.19.17.29l-.15-.36c.06.15.1.31.12.47l-.05-.4c.04.33.03.67,0,1-.02.37.18.81.44,1.06s.69.46,1.06.44.79-.14,1.06-.44.41-.65.44-1.06c.04-.55.03-1.11-.11-1.64-.19-.73-.66-1.36-1.3-1.75-1.14-.71-2.49-.48-3.68-.07-.37.12-.69.35-.9.69-.19.32-.27.8-.15,1.16s.34.71.69.9.77.28,1.16.15h0Z"/>
    <path d="M316.96,197.14c.78,2.35,1.53,4.68,2.51,6.96.19.45.83.77,1.3.74,3.61-.24,7.92.11,10.65-2.73.97-1.01,1.61-2.32,1.66-3.73s-.65-2.83-1.65-3.85c-1.46-1.5-3.38-2.21-5.46-2.06-2.97.22-5.77,1.52-8.32,2.98-1.67.96-.16,3.55,1.51,2.59,1.93-1.11,3.96-2.09,6.16-2.49.1-.02.21-.04.31-.05-.06,0-.25.03.05,0,.19-.02.38-.03.56-.04.34-.01.68,0,1.02.03-.38-.03.06.02.17.04.14.03.27.07.41.11.37.11-.06-.06.1.04.22.14.46.25.68.4.7.47,1.37,1.21,1.46,2.05.07.63-.32,1.4-.86,1.94-.59.59-1.32.94-2.11,1.19-.87.28-1.45.3-2.4.35-1.31.07-2.63.16-3.94.24l1.3.74c-.03-.08-.07-.15-.1-.23-.02-.07-.06-.13-.08-.2.09.21.01.03-.03-.08-.18-.44-.37-.88-.53-1.33-.52-1.45-.98-2.93-1.46-4.39-.26-.77-1.04-1.27-1.85-1.05-.75.21-1.3,1.07-1.05,1.85h0Z"/>
    <path d="M357.19,316.56c.29,6.89-.32,13.81-.36,20.69-.05,9.45.57,18.93,2.53,28.19,2.29,10.81,6.47,21.25,12.65,30.43,5.76,8.55,13.41,15.53,23.52,18.32,4.09,1.13,8.35,1.58,12.59,1.74,4.63.17,9.34.28,13.91-.56,7.87-1.43,14.39-5.9,20.58-10.72,12.32-9.58,17.13-26.34,19.48-41.09,2.33-14.59,2.62-29.59,1.42-44.3-.1-1.22-.21-2.44-.34-3.66-.2-1.9-3.2-1.92-3,0,1.41,13.37,1.4,27.02-.07,40.38-.86,7.91-2.33,15.8-4.82,23.36-2.27,6.89-5.48,13.7-10.4,19.11-2.17,2.39-4.67,4.25-7.24,6.16-2.93,2.17-5.94,4.23-9.29,5.71-4.5,1.98-9.3,2.68-14.19,2.69-3.95,0-7.92-.04-11.84-.53-9.21-1.15-17.19-5.4-23.33-12.37-7.24-8.21-12.18-18.64-15.17-29.11-2.62-9.21-3.73-18.75-3.95-28.3-.18-7.43.28-14.83.36-22.25.01-1.3,0-2.61-.05-3.91-.08-1.92-3.08-1.93-3,0h0Z"/>
    <circle class="cls-2" cx="461.04" cy="305.96" r="9.57"/>
    <path d="M400.86,204.8c.43-2.44.9-4.86,1.12-7.33.04-.48-.31-1.09-.74-1.3-1.23-.56-2.46-1.12-3.68-1.71-2.19-1.05-4.72-1.79-7.12-.95-1.29.45-2.49,1.27-3.16,2.5-.73,1.33-.77,2.93-.29,4.35.66,1.97,1.95,3.4,3.85,4.22,2.68,1.17,5.7,1.38,8.59,1.3,1.93-.05,1.93-3.05,0-3-2.27.06-4.33-.02-6.44-.68-.19-.06-.39-.13-.58-.2-.08-.03-.16-.06-.24-.09-.23-.09.31.15-.04-.02-.32-.16-.64-.32-.94-.52-.09-.06-.46-.38-.15-.09-.09-.08-.19-.16-.28-.25-.08-.08-.18-.24-.27-.29-.15-.09.19.31.05.07-.08-.13-.17-.26-.25-.39-.48-.82-.77-1.77-.54-2.58.21-.73.88-1.23,1.58-1.46.54-.18.73-.22,1.28-.22.26,0,.51.01.77.04.09,0,.17.02.26.03-.37-.05.04,0,.09.02.89.15,1.59.45,2.36.82,1.21.58,2.43,1.13,3.65,1.69l-.74-1.3c-.02.27-.05.54-.08.82-.02.23-.05.47-.07.7-.01.12-.03.24-.04.36-.05.45.05-.28-.01.12-.27,1.51-.53,3.02-.8,4.54-.14.8.22,1.62,1.05,1.85.72.2,1.7-.25,1.85-1.05h0Z"/>
  </g>
</svg>